# xmcd
#
# Track frame offsets: 
#        150
#        15166
#        31314
#        42358
#        58830
#
# Disc length: 977 seconds
#
# Revision: 0
# Processed by: cddbd v1.5.2PL0 Copyright (c) Steve Scherf et al.
# Submitted via: ExactAudioCopy v1.1
#
DISCID=3403cf05
DTITLE=The Dead South - The Ocean Went Mad And We Were To Blame
DYEAR=2013
DGENRE=Bluegrass
TTITLE0=Banjo Odyssey
TTITLE1=Wishing Well
TTITLE2=The Dirty Juice
TTITLE3=Fruit And Salad
TTITLE4=Honey You
EXTD=
EXTT0=
EXTT1=
EXTT2=
EXTT3=
EXTT4=
PLAYORDER=
